<?xml version="1.0" encoding="UTF-8" standalone="no"?>
<!-- Created with Inkscape (http://www.inkscape.org/) -->

<svg
   xmlns:dc="http://purl.org/dc/elements/1.1/"
   xmlns:cc="http://creativecommons.org/ns#"
   xmlns:rdf="http://www.w3.org/1999/02/22-rdf-syntax-ns#"
   xmlns:svg="http://www.w3.org/2000/svg"
   xmlns="http://www.w3.org/2000/svg"
   version="1.1"
   width="454"
   height="506"
   id="svg4256">
  <defs
     id="defs4258" />
  <metadata
     id="metadata4261">
    <rdf:RDF>
      <cc:Work
         rdf:about="">
        <dc:format>image/svg+xml</dc:format>
        <dc:type
           rdf:resource="http://purl.org/dc/dcmitype/StillImage" />
        <dc:title></dc:title>
      </cc:Work>
    </rdf:RDF>
  </metadata>
  <g
     transform="translate(-50.142849,-256.50504)"
     id="layer1">
    <path
       d="m 129.17856,724.39856 -27.75,-0.2823 0.0292,-2.23418 c 0.0161,-1.2288 1.95678,-5.83418 4.31272,-10.23418 146.56996,-270.23193 151.5854,-278.66178 220.53332,-411.14155 2.81431,-5.57783 5.83049,-10.41533 6.70263,-10.75 0.87214,-0.33467 24.6688,-0.60849 52.88147,-0.60849 43.64661,0 51.47565,0.21674 52.50205,1.45348 0.96723,1.16544 0.6447,2.50309 -1.62755,6.75 -76.37037,143.40563 -158.39759,294.03669 -223.40661,417.43989 -1.74024,3.42855 -4.02832,7.16139 -5.08461,8.29518 -2.12199,2.27769 4.70013,2.16452 -79.09262,1.31211 z"
       id="path4354"
       style="fill:#06a6b8" />
    <path
       d="m 241.99395,629.11183 c -3.26894,-1.32268 -8.12185,-6.67601 -8.67497,-9.5695 -0.27701,-1.44904 -0.26648,-15.48198 0.0234,-31.1843 l 0.52702,-28.54968 2.94342,-3.35237 c 5.50353,-6.26818 14.31651,-6.89521 20.80419,-1.48019 l 3.45373,2.8827 0,32.02852 0,32.02851 -2.5,2.71057 c -4.36102,4.72834 -11.32189,6.61198 -16.57677,4.48574 z m 7.91631,-29.28292 c 0.81877,-21.58452 0.83632,-33.12815 0.0535,-35.16821 -0.83233,-2.16902 -4.37611,-2.03531 -4.45822,0.16821 -0.0668,1.79351 -0.0502,33.39004 0.0239,45.5 0.036,5.87618 0.27985,6.75 1.88392,6.75 1.69363,0 1.8955,-1.3946 2.49694,-17.25 z m -89.67287,28.58333 c -0.36667,-0.36666 -0.66667,-17.91666 -0.66667,-39 l 0,-38.33333 8.79983,0 c 7.88221,0 9.23741,0.28373 12.99614,2.72093 5.19528,3.36869 5.46244,4.59109 5.03265,23.02744 -0.30998,13.297 -0.46545,14.24214 -2.74079,16.66121 -1.64491,1.74883 -3.90477,2.76256 -7.10473,3.18705 l -4.69257,0.62249 -0.64527,10.546 c -0.35489,5.8003 -0.64526,12.951 -0.64526,15.89044 l 0,5.34444 -4.83333,0 c -2.65834,0 -5.13334,-0.3 -5.5,-0.66667 z m 15.11595,-54.47568 c 0.24065,-9.04194 0.0417,-10.71111 -1.34024,-11.24139 -2.91982,-1.12044 -3.44238,0.37646 -3.44238,9.86097 0,10.50741 0.52621,12.75984 2.87583,12.31001 1.35553,-0.25952 1.67092,-2.06728 1.90679,-10.92959 z m 20.78762,16.9417 c 0.38295,-21.06464 0.88465,-38.5102 1.11489,-38.76789 0.92634,-1.03681 17.01605,0.21713 19.82414,1.54498 4.84226,2.28973 5.85967,4.89653 6.30873,16.16408 0.47758,11.98293 -0.13457,16.16546 -2.81896,19.26059 -1.9526,2.25136 -1.95129,2.26693 0.42865,5.09532 2.47538,2.94182 2.85238,5.56876 3.8969,27.15357 l 0.37504,7.75 -5.78243,0 c -7.24551,0 -7.2804,-0.0862 -7.16294,-17.69301 0.0692,-10.36585 -0.2217,-13.45004 -1.35729,-14.3925 -0.79492,-0.65972 -1.74902,-0.89577 -2.12023,-0.52456 -0.37122,0.37121 -0.69784,7.74784 -0.72584,16.3925 l -0.0509,15.71757 -6.31301,0.29935 -6.31302,0.29936 0.69627,-38.29936 z m 15.92976,-16.79935 c 0,-10.83333 -0.11594,-11.5 -2,-11.5 -1.87131,0 -2.01817,0.76079 -2.28237,11.82379 -0.28201,11.80839 -0.2794,11.82337 2,11.5 2.22541,-0.31571 2.28237,-0.61078 2.28237,-11.82379 z m 65.62192,21.75 0.37808,-33.25 -3.75,-0.31037 -3.75,-0.31036 0,-4.83681 0,-4.83681 12.75,-0.40719 c 7.0125,-0.22395 12.80469,-0.38273 12.87153,-0.35282 0.0668,0.0299 0.33606,2.39377 0.59827,5.25304 l 0.47675,5.19868 -3.59827,0.30132 -3.59828,0.30132 -0.26348,33.25 -0.26348,33.25 -6.1146,0 -6.11459,0 0.37807,-33.25 z m 27.87808,-5.75 0,-39 11.5,0 11.5,0 0,5 0,5 -5.36916,0 -5.36916,0 -0.61983,3.75 c -0.78487,4.74845 -0.82283,14.61479 -0.0638,16.59268 0.42224,1.10036 1.50016,1.35662 4,0.95095 l 3.42195,-0.55531 0,6.13084 0,6.13084 -3.5,0 -3.5,0 0,11.5 0,11.5 6,0 6,0 0,6 0,6 -12,0 -12,0 0,-39 z m 33.66667,38.33333 c -0.84552,-0.84551 -0.84718,-20.88007 -0.004,-52.58333 l 0.65796,-24.75 5.33987,0 5.33988,0 0,39 0,39 -5.33333,0 c -2.93334,0 -5.63334,-0.3 -6,-0.66667 z m 22.34044,-31.58333 c 0.004,-17.7375 0.29398,-35.2875 0.6446,-39 l 0.6375,-6.75 6.24699,0 c 7.33198,0 6.14983,-2.5738 10.05019,21.88152 1.61332,10.11557 3.05085,16.595 3.43885,15.5 0.36668,-1.03483 0.74575,-9.72876 0.84237,-19.31983 0.0966,-9.59107 0.27843,-17.50625 0.40403,-17.5893 0.1256,-0.0831 2.14086,0.049 4.47836,0.29334 l 4.25,0.44434 0,38.44268 0,38.44268 -6.21211,-0.29771 -6.2121,-0.29772 -3.60617,-18.73494 c -1.9834,-10.30422 -3.91295,-19.04172 -4.2879,-19.41667 -0.37494,-0.37495 -0.68172,8.16828 -0.68172,18.98494 l 0,19.66667 -5,0 -5,0 0.007,-32.25 z M 185.57072,544.16794 c -4.125,-0.32397 -7.51178,-1.03903 -7.52618,-1.58903 -0.0448,-1.71373 -1.53335,-12.73895 -2.49765,-18.5 -0.50633,-3.025 -1.62876,-10.67316 -2.49429,-16.99591 -0.86553,-6.32274 -1.94588,-11.86809 -2.40078,-12.32299 -0.9706,-0.9706 -2.68848,8.35728 -7.14914,38.8189 -0.64432,4.4 -1.32847,8.5625 -1.52034,9.25 -0.25192,0.90267 -3.39196,1.25 -11.30078,1.25 l -10.95193,0 -0.54192,-2.75 c -1.25482,-6.36772 -6.77537,-37.44093 -10.61535,-59.75 -2.27207,-13.2 -5.22692,-29.74101 -6.56634,-36.75781 -1.33942,-7.0168 -2.4353,-13.2043 -2.4353,-13.75 0,-1.55997 25.95161,-1.30753 26.50341,0.25781 0.62562,1.77474 6.49659,49.66249 6.49659,52.99074 0,1.51759 0.37235,2.75926 0.82744,2.75926 0.45509,0 1.40165,-5.0625 2.10347,-11.25 0.70182,-6.1875 2.35279,-18.675 3.66882,-27.75 1.31603,-9.075 2.39447,-16.8375 2.39653,-17.25 0.006,-1.10862 16.78518,-0.91266 17.47536,0.20408 0.32431,0.52475 1.04117,4.91225 1.59302,9.75 2.16,18.93548 5.02053,41.90608 5.48504,44.04592 0.66863,3.08015 2.45032,2.8456 2.45032,-0.32257 0,-2.29431 1.23372,-10.42872 6.583,-43.40426 0.84553,-5.21226 1.6969,-9.6364 1.89193,-9.83143 0.89629,-0.89629 22.43878,-1.14037 22.98264,-0.2604 0.3301,0.53412 -0.26426,5.38056 -1.32079,10.76989 -3.65182,18.62776 -10.87793,59.85345 -14.25018,81.29877 -1.16757,7.425 -2.4072,15.3 -2.75473,17.5 -0.61208,3.87472 -0.75715,4.00279 -4.63187,4.08903 -2.2,0.049 -7.375,-0.17604 -11.5,-0.5 z m 49,-55.99391 0,-56.96644 10.75,-0.31434 c 16.93732,-0.49526 15.09449,-3.58473 14.48223,24.27906 l -0.5253,23.9066 7.14654,0 7.14653,0 0,-24.5 0,-24.5 12.5,0 12.5,0 0,56.53138 c 0,49.5367 -0.18715,56.60321 -1.51259,57.11182 -0.83192,0.31924 -6.51701,0.64262 -12.63354,0.71862 l -11.12095,0.13818 0.19939,-21.79719 0.19938,-21.79719 -6.81584,0.29719 -6.81585,0.29719 -0.5,21.5 -0.5,21.5 -12.25,0.28078 -12.25,0.28078 0,-56.96644 z m 164.69587,56.26742 c -0.38273,-0.38273 -0.69587,-11.47233 -0.69587,-24.64355 l 0,-23.94769 -3.17068,-10.13565 c -1.74388,-5.57461 -6.41878,-20.03565 -10.38866,-32.13565 l -7.21798,-22 5.13866,-0.6511 c 5.60511,-0.71021 19.63866,-1.06422 19.63866,-0.49541 0,1.28518 6.21867,25.53352 6.96193,27.14651 0.50688,1.1 1.20855,3.4625 1.55929,5.25 0.35073,1.7875 0.96849,3.25 1.3728,3.25 0.40432,0 2.47701,-8.1 4.60598,-18 l 3.87086,-18 12.37359,0 c 6.80547,0 12.18455,0.3375 11.95351,0.75 -0.23105,0.4125 -2.57243,7.5 -5.20308,15.75 -2.63064,8.25 -7.21234,22.41828 -10.18154,31.48506 l -5.39855,16.48506 -0.2074,25.01494 -0.20739,25.01494 -12.05413,0.27921 c -6.62977,0.15356 -12.36727,-0.0339 -12.75,-0.41667 z m -82.69587,-56.79515 0,-56.43261 2.10978,-0.66962 c 1.16038,-0.36829 12.42598,-0.34087 25.03467,0.0609 l 22.92488,0.73056 -0.28467,9.62167 -0.28466,9.62171 -11,0.28146 c -6.05,0.1548 -11.54602,0.47186 -12.21339,0.70456 -0.85971,0.29979 -1.2013,3.77688 -1.17195,11.92936 l 0.0414,11.50626 8.17195,0.28918 8.17195,0.28918 0,10.5 0,10.5 -8,0 -8,0 -0.27903,13.25 -0.27902,13.25 12.52902,0 12.52903,0 0,10.5 0,10.5 -25,0 -25,0 0,-56.43261 z m 17.21141,-62.65256 c -3.4644,-1.04505 -6.55731,-3.61658 -9.45482,-7.86099 -1.48153,-2.17022 -1.7444,-5.00469 -1.75,-18.86958 -0.007,-16.8643 0.41064,-19.0026 4.40039,-22.53996 3.23005,-2.86381 6.13781,-3.6443 13.57708,-3.6443 11.13727,0 16.01594,4.22163 16.01594,13.85898 0,4.93469 -0.0766,5.06476 -3.34207,5.67737 -1.83813,0.34484 -4.65063,0.47773 -6.25,0.29531 -2.63767,-0.30084 -2.93628,-0.72201 -3.21299,-4.53175 -0.32,-4.40581 -2.20937,-5.99907 -5.58013,-4.70559 -1.46886,0.56365 -1.63413,2.37842 -1.39087,15.27267 l 0.27606,14.63301 2.68954,0.31059 c 2.51238,0.29013 2.70999,0.0267 3,-4 0.30046,-4.17177 0.42802,-4.32039 3.96078,-4.61501 2.00767,-0.16743 5.13598,0.0805 6.95179,0.55107 3.27031,0.84742 3.29879,0.90623 3.0164,6.22673 -0.15926,3.00078 -1.02064,6.39208 -1.95179,7.68439 -3.57822,4.96606 -14.46191,8.21582 -20.95531,6.25706 z m -167.21141,-26.96052 0,-26.04569 6.57079,0.29569 6.57079,0.29569 -0.10308,24.89774 c -0.0567,13.69376 -0.34011,25.28126 -0.62981,25.75 -0.2897,0.46874 -3.20017,0.85226 -6.46771,0.85226 l -5.94098,0 0,-26.04569 z m 22.92487,25.79569 c -0.0413,-0.1375 -0.13738,-11.725 -0.21346,-25.75 l -0.13834,-25.5 9.86382,0 c 9.09463,0 9.88779,0.15596 10.17135,2 1.01681,6.61253 5.28708,21.75463 5.78127,20.5 0.32497,-0.825 1.50575,-5.98798 2.62396,-11.4733 1.11822,-5.48531 2.40048,-10.34065 2.84947,-10.78964 0.449,-0.449 5.05101,-0.68601 10.22671,-0.52671 l 9.41035,0.28965 -0.3066,24.93706 c -0.16862,13.71539 -0.53268,25.30289 -0.80901,25.75 -0.27633,0.44712 -3.40087,0.81294 -6.94341,0.81294 l -6.44098,0 0,-15.16667 c 0,-8.34166 -0.1991,-14.96757 -0.44244,-14.72422 -0.24334,0.24334 -1.32614,4.49142 -2.40622,9.44018 -1.08009,4.94876 -2.71292,11.57466 -3.62852,14.72423 l -1.66474,5.72648 -4.46042,0 c -2.70072,0 -4.60908,-0.49314 -4.83722,-1.25 -0.20723,-0.6875 -1.65561,-8 -3.21861,-16.25 l -2.84183,-15 -0.63187,13.5 c -0.34752,7.425 -0.68502,14.7375 -0.75,16.25 -0.11394,2.65235 -0.31344,2.75 -5.61813,2.75 -3.025,0 -5.53381,-0.1125 -5.57513,-0.25 z m 58.5038,-1.07528 c -0.25303,-0.65938 -0.34049,-12.21844 -0.19436,-25.68679 l 0.26569,-24.48793 9,-0.31211 c 17.13591,-0.59425 20.49083,2.23964 20.49504,17.31211 0.003,11.53034 -1.70157,14.00889 -10.79933,15.7008 l -5.9983,1.1155 -0.35251,7.76232 c -0.19388,4.26927 -0.59459,8.00441 -0.89048,8.30029 -1.22147,1.22147 -11.07351,1.47432 -11.52575,0.29581 z m 15.98954,-27.28171 c 2.27658,-0.8736 2.26928,-11.91522 -0.008,-12.78927 -2.73997,-1.05142 -3.40976,0.31482 -3.40976,6.95528 0,6.38674 0.36305,7.00637 3.41821,5.83399 z m 19.83638,24.41398 c 0.66717,-5.44702 6.59301,-42.53281 7.28582,-45.59696 0.49476,-2.18827 0.88088,-2.2771 8.69361,-2 l 8.17586,0.28997 4.22952,25 c 2.32624,13.75 3.8746,25.36191 3.44081,25.80425 -0.43379,0.44234 -3.43916,0.66734 -6.67859,0.5 -5.67609,-0.29321 -5.90859,-0.41314 -6.40557,-3.30425 -0.45723,-2.6599 -0.91025,-3 -3.99605,-3 -3.08588,0 -3.53877,0.34004 -3.99571,3 -0.48931,2.84848 -0.78711,3.0155 -5.89629,3.30699 l -5.38095,0.307 0.52754,-4.307 z m 16.7301,-18.61601 c -0.0184,-5.62843 -1.38335,-8.56961 -2.3323,-5.02551 -0.81852,3.05697 -0.8265,9.32709 -0.0129,10.14068 1.40831,1.40831 2.35973,-0.66684 2.34521,-5.11517 z m 72.03003,18.05902 c 0.0897,-2.6125 0.12301,-11.81163 0.0741,-20.4425 l -0.0888,-15.6925 -4.25,-0.3075 -4.25,-0.3075 0,-5 0,-5 16,0 16,0 0,5 0,5 -4.75,0.30479 -4.75,0.30479 0,20.44521 0,20.44521 -7.07414,0 -7.07414,0 0.163,-4.75 z"
       id="path4352"
       style="fill:#020304" />
  </g>
</svg>
