<?xml version="1.0" encoding="UTF-8" standalone="no"?>
<!-- Created with Inkscape (http://www.inkscape.org/) -->

<svg
   xmlns:dc="http://purl.org/dc/elements/1.1/"
   xmlns:cc="http://creativecommons.org/ns#"
   xmlns:rdf="http://www.w3.org/1999/02/22-rdf-syntax-ns#"
   xmlns:svg="http://www.w3.org/2000/svg"
   xmlns="http://www.w3.org/2000/svg"
   version="1.1"
   width="404.74377"
   height="351.88614"
   id="svg3135">
  <defs
     id="defs3137" />
  <metadata
     id="metadata3140">
    <rdf:RDF>
      <cc:Work
         rdf:about="">
        <dc:format>image/svg+xml</dc:format>
        <dc:type
           rdf:resource="http://purl.org/dc/dcmitype/StillImage" />
        <dc:title></dc:title>
      </cc:Work>
    </rdf:RDF>
  </metadata>
  <g
     transform="translate(-37.945699,-76.817584)"
     id="layer1">
    <g
       transform="translate(-4.5962018,-41.012193)"
       id="g3323">
      <rect
         width="109.83504"
         height="391.10556"
         ry="6.0095239"
         x="379.80869"
         y="140.51289"
         transform="matrix(1,0,-0.48565051,0.87415306,0,0)"
         id="rect3331"
         style="fill:#00a8bb;fill-opacity:1;stroke:none" />
      <path
         d="m 225.28569,394.33928 c -3.3,-0.41894 -7.8,-1.51412 -10,-2.43373 l -4,-1.67201 -3.7143,-4.0705 -3.7143,-4.0705 -0.60411,-4.07948 c -0.33226,-2.24371 -0.46083,-6.55447 -0.2857,-9.57947 l 0.31841,-5.5 5,-0.32047 c 2.75,-0.17626 6.9125,-0.0362 9.25,0.31127 l 4.25,0.63175 0,4.21622 0,4.21622 1.5567,2.2225 1.55671,2.22251 3.42024,0 3.42024,0 1.58388,-2.41731 1.58388,-2.4173 -0.68054,-3.6276 -0.68054,-3.6276 -6.57851,-5.70509 c -3.61819,-3.13781 -8.93721,-8.07984 -11.82005,-10.9823 l -5.24153,-5.27721 -2.80185,-5.72279 -2.80186,-5.7228 -0.36768,-7.25 -0.36769,-7.25 1.27597,0 1.27596,0 -0.65112,-0.65112 -0.65112,-0.65113 1.73445,-1.42303 c 0.95395,-0.78267 1.17196,-1.13811 0.48446,-0.78986 l -1.25,0.63317 0,-0.62475 c 0,-0.34362 0.47258,-1.50778 1.05017,-2.58703 l 1.05018,-1.96227 1.10433,0.68252 1.10434,0.68252 -0.61993,-1.00307 -0.61993,-1.00306 1.99442,-2.14076 c 2.55,-2.7371 6.25151,-4.58087 12.02523,-5.98989 l 4.5888,-1.11986 5.58572,0.9091 c 9.37546,1.5259 15.32986,5.41542 18.87531,12.32968 l 1.94401,3.79116 -0.29133,7.70884 -0.29132,7.70884 -8.75646,0.14835 -8.75646,0.14835 -0.477,-2.14835 c -0.26235,-1.18159 -0.59694,-3.94835 -0.74354,-6.14835 l -0.26654,-4 -3.74409,-0.31001 -3.7441,-0.31002 -1.16508,2.55707 -1.16507,2.55706 1.13177,3.77754 1.13178,3.77753 4.9188,4.97542 c 2.70534,2.73647 7.33016,7.28755 10.27739,10.11349 l 5.3586,5.13808 3.46206,5.76042 3.46207,5.76042 0.38952,6.11738 0.38953,6.11737 -1.14206,4.24125 -1.14205,4.24126 -3.62014,3.62015 -3.62015,3.62014 -4.08939,1.74946 c -5.578,2.38629 -9.04467,2.79603 -16.08939,1.90168 z m -129,-1.64165 c -5.986575,-2.14678 -8.662866,-3.93049 -11.713232,-7.80674 l -2.28677,-2.9059 -0.807108,-32.48586 -0.807108,-32.48585 1.675965,-3.71663 c 2.205096,-4.89002 5.85845,-8.27835 11.721025,-10.87074 l 4.782778,-2.1149 8.03202,0.0177 8.03203,0.0177 5.29216,2.42283 5.29217,2.42283 2.89303,3.78913 2.89304,3.78913 0.33605,11.33168 0.33606,11.33168 -9.94999,0 -9.95,0 -0.1785,-7.69867 -0.1785,-7.69868 -1.08001,-1.30132 -1.08,-1.30143 -2.25511,0 -2.25511,0 -0.99676,1.25 -0.99676,1.25 -0.49694,27.21152 -0.49695,27.21153 1.7,1.53847 1.7,1.53848 2.11455,0 2.11456,0 1.5567,-2.22251 1.55671,-2.2225 0,-7.41995 0,-7.41995 6.14669,0.64245 c 3.38068,0.35335 7.65568,0.64246 9.5,0.64246 l 3.35331,0 -0.006,8.25 -0.006,8.25 -0.98529,3.5 -0.98529,3.5 -3.18513,3.38408 -3.18513,3.38408 -4.5579,2.01618 -4.55789,2.01617 -6.51611,0.37826 -6.51611,0.37826 -5,-1.79299 z m 76.48033,-0.68371 -0.98033,-0.98033 0,-5.19301 0,-5.19301 -1.58179,-0.60699 c -0.86998,-0.33385 -3.30569,-0.60699 -5.41269,-0.60699 l -3.8309,0 -0.83731,6.25 -0.83731,6.25 -9.27857,0.2879 -9.27856,0.28791 0.5058,-2.28791 c 0.27819,-1.25834 1.1782,-6.5629 2.00002,-11.7879 0.82182,-5.225 3.15022,-19.4 5.17421,-31.5 2.02399,-12.1 4.41328,-27.175 5.30953,-33.5 l 1.62954,-11.5 12.12544,-0.31428 12.12544,-0.31429 0.56903,2.81429 c 0.31296,1.54785 1.01963,5.73928 1.57037,9.31428 0.55074,3.575 2.59836,16.4 4.55025,28.5 3.53327,21.90304 4.41069,27.42498 6.55936,41.28012 l 1.129,7.28012 -0.56404,1.46986 -0.56404,1.46986 -9.55106,-0.21965 -9.55106,-0.21965 z m -3.59043,-39.83033 c -0.26413,-5.0875 -0.71866,-11.20374 -1.01008,-13.59165 l -0.52985,-4.34165 -0.67499,0.67248 c -0.66269,0.66024 -2.97861,18.36148 -3.10871,23.76082 l -0.0663,2.75 2.93506,0 2.93507,0 -0.48023,-9.25 z m 98.3601,40.68858 -0.75,-0.77191 0,-44.25155 c 0,-24.33835 0.23072,-44.85085 0.5127,-45.58333 l 0.51271,-1.33179 19.73729,0.167 c 10.85552,0.0918 20.29698,0.20434 20.98103,0.25 l 1.24372,0.083 -0.41941,2.25 c -0.23068,1.2375 -0.45286,4.8375 -0.49373,8 l -0.0743,5.75 -10.53621,0 -10.53621,0 0.28621,9.75 0.28621,9.75 6.85406,0.29806 6.85407,0.29806 -0.59041,2.20194 c -0.32473,1.21107 -0.59656,5.01444 -0.60407,8.45194 l -0.0136,6.25 -6.5,0 -6.5,0 0,10.5 0,10.5 10,0 10,0 0,8.5 0,8.5 -13.85331,0 c -7.61932,0 -16.50682,0.27236 -19.75,0.60525 l -5.89669,0.60525 -0.75,-0.77192 z m 86.74558,-0.68858 c -0.24291,-0.6875 -0.11629,-21.5 0.28138,-46.25 l 0.72304,-45 9.92828,0 9.92827,0 6.98085,21.25 6.98085,21.25 0.91192,0 0.91191,0 -0.23604,-21.25 -0.23603,-21.25 8.82374,-0.29125 8.82375,-0.29125 0.83819,0.83819 0.83819,0.83819 -0.66002,45.70306 -0.66002,45.70306 -9.08692,-10e-4 -9.08692,-10e-4 -3.69674,-9.74854 c -2.0332,-5.3617 -5.35142,-14.47354 -7.37382,-20.24854 -2.0224,-5.775 -4.07137,-10.9275 -4.55327,-11.45 l -0.87617,-0.95092 0,21.2 0,21.2 -9.53138,0 -9.53139,0 z m -34.00042,-44 c 0.31907,-24.3375 0.56319,-45.0658 0.54248,-46.06288 l -0.0376,-1.81289 10.25,0.31289 10.25,0.31288 0.20328,45.75 0.20327,45.75 -10.99575,0 -10.99576,0 0.58012,-44.25 z M 56.285688,290.4741 c -1.1,-0.45799 -3.329561,-2.23768 -4.95458,-3.95486 l -2.954581,-3.12216 -0.417313,-9.54151 -0.417313,-9.54152 4.871894,0.30977 4.871893,0.30977 -0.337117,4.71512 c -0.185414,2.59331 -0.03634,6.08456 0.331282,7.75831 l 0.668399,3.0432 1.849272,0.9897 1.849272,0.9897 1.569446,-1.56944 1.569446,-1.56945 -0.0213,-5.17857 -0.0213,-5.17857 -2.831733,-8 c -1.557449,-4.4 -4.73064,-12.5 -7.051532,-18 -2.320891,-5.5 -4.862028,-12.45704 -5.646969,-15.4601 l -1.427166,-5.4601 0,-5.2248 0,-5.2248 1.066612,-2.8151 c 0.586637,-1.54831 2.015079,-3.8276 3.174314,-5.0651 l 2.107702,-2.25 6.754257,0 6.754258,0 1.717859,1.71786 c 0.944822,0.94482 2.542082,3.53232 3.549466,5.75 l 1.831608,4.03214 0.02196,7.75 0.02196,7.75 -5,0 -5,0 0,-7.87756 0,-7.87755 -1.421639,-1.17986 -1.421639,-1.17985 -2.078361,1.29796 -2.078361,1.29795 0,2.71024 c 0,5.20363 2.277908,13.25556 6.716937,23.74299 2.459682,5.81113 5.779604,14.59347 7.377606,19.51632 l 2.905457,8.95064 0,6.33148 0,6.33148 -1.439824,3.44598 -1.439825,3.44599 -3.310175,2.01816 -3.310176,2.01815 -3.5,-0.0596 c -1.925,-0.0328 -4.4,-0.43437 -5.5,-0.89237 z m 68.000002,0.005 c -1.1,-0.45499 -3.125,-2.03676 -4.5,-3.51505 l -2.5,-2.68733 -0.53881,-35.67157 -0.5388,-35.67156 1.31452,-4.04958 1.31451,-4.04958 2.87858,-1.70042 2.87858,-1.70042 4.84571,0.0222 4.84571,0.0222 2.12498,1.72777 c 1.16875,0.95027 2.83958,2.86084 3.71298,4.24572 l 1.58799,2.51797 0.59389,13.48203 0.59389,13.48204 -0.81039,23.17319 -0.81038,23.17318 -2.49648,2.67183 c -4.60394,4.92732 -9.68998,6.51587 -14.49648,4.52777 z m 6.94375,-10.95496 c 0.30898,-0.49994 0.57247,-15.65351 0.58553,-33.67459 l 0.0237,-32.76561 -1.27651,-0.80915 c -0.70204,-0.44457 -1.72647,-0.66671 -2.27647,-0.49319 l -1,0.31551 -0.56758,32.91824 c -0.31216,18.10503 -0.37652,33.48074 -0.14301,34.16824 l 0.42457,1.25 1.83399,0 c 1.0087,0 2.0868,-0.40904 2.39578,-0.90899 z m 260.05625,10.96409 c -2.77254,-1.13478 -5.14966,-3.97192 -6.96186,-8.30912 l -1.53814,-3.68128 0,-7.58438 0,-7.58438 5.25,0.30226 5.25,0.30226 0.28468,7 c 0.15658,3.85 0.47996,7.5625 0.71862,8.25 l 0.43393,1.25 2.01233,0 2.01234,0 0.65046,-2.59166 0.65047,-2.59166 -1.12168,-6.79201 -1.12168,-6.79201 -4.55324,-10.86633 c -2.50428,-5.97648 -5.65866,-14.48955 -7.00973,-18.91793 l -2.4565,-8.05161 0,-6.73051 0,-6.73052 1.36198,-3.21788 c 0.7491,-1.76983 2.22728,-3.98751 3.28487,-4.92817 l 1.92288,-1.71029 6.88979,-0.18955 6.88979,-0.18955 2.33344,2.89984 c 1.28338,1.59491 2.77728,4.47484 3.31976,6.39984 1.16106,4.12001 1.30003,15.97594 0.20741,17.69458 l -0.75945,1.19457 -4.47523,-0.2222 -4.47524,-0.22221 -0.5,-8.47237 -0.5,-8.47237 -2,0 -2,0 0.0613,8 0.0613,8 5.83718,14.5 c 3.21045,7.975 6.69755,17.65 7.74911,21.5 l 1.91193,7 -0.6312,5.93648 -0.63119,5.93649 -1.47779,2.85774 -1.4778,2.85774 -3.20145,1.95203 -3.20145,1.95204 -3.5,-0.0596 c -1.925,-0.0328 -4.4,-0.42802 -5.5,-0.87824 z m -305.972448,-43.61428 -0.741284,-43.62663 0.856865,-0.75734 0.856865,-0.75735 4.099317,0.44115 4.099317,0.44114 0.650683,13.56745 c 0.357876,7.46209 0.650683,24.94778 0.650683,38.85707 l 0,25.28963 5.250002,0.30226 5.25,0.30226 0,4.5 0,4.5 -10.11558,0.2835 -10.115584,0.2835 z m 91.782198,42.76472 -1.19025,-0.74926 -0.99525,-7.97791 c -0.54738,-4.38785 -1.31332,-13.04041 -1.70207,-19.22791 l -0.70683,-11.25 -0.83862,0 c -1.14266,0 -1.51415,2.34316 -2.85377,18 -0.63529,7.425 -1.40786,15.1875 -1.71683,17.25 l -0.56175,3.75 -3.32688,0 -3.32687,0 -0.54713,-3.25 c -0.30091,-1.7875 -1.21108,-10.9 -2.02258,-20.25 -0.81151,-9.35 -2.60757,-26.9 -3.99125,-39 -1.38369,-12.1 -2.51891,-22.81216 -2.52273,-23.80479 l -0.007,-1.80479 4.75,0.30479 4.75,0.30479 1.16729,13.5 c 0.64201,7.425 1.46991,17.4375 1.83977,22.25 l 0.67248,8.75 0.72537,0 0.72537,0 1.2576,-20.75 c 0.69168,-11.4125 1.4802,-21.5375 1.75225,-22.5 l 0.49465,-1.75 2.37359,0 c 1.30548,0 2.57907,0.3375 2.83021,0.75 0.25114,0.4125 0.98045,8.4 1.62069,17.75 0.64024,9.35 1.42506,19.025 1.74406,21.5 l 0.57999,4.5 0.75653,-3 c 0.41609,-1.65 1.3174,-10.875 2.00291,-20.5 0.6855,-9.625 1.33438,-18.175 1.44194,-19 l 0.19558,-1.5 4.29572,-0.31414 4.29573,-0.31413 0.75961,0.81413 0.75962,0.81414 -2.78496,22.5 c -1.53172,12.375 -3.81618,31.725 -5.07658,43 -1.2604,11.275 -2.32263,20.5566 -2.36053,20.62577 -0.0379,0.0692 -0.96889,0.3964 -2.06889,0.72717 l -2,0.6014 -1.19025,-0.74926 z m 81.44025,0.10559 -1.75,-0.45732 0,-43.84135 0,-43.84135 6.25,-0.33532 c 3.4375,-0.18443 8.3875,-0.19817 11,-0.0305 l 4.75,0.30479 0,5.44521 0,5.44521 -5.3476,0 -5.34759,0 -0.67169,12.5643 c -0.36942,6.91036 -0.41145,12.98536 -0.0934,13.5 l 0.57829,0.9357 3.49325,0 3.49324,0 -0.30226,5.25 -0.30226,5.25 -2.5,0.15146 c -1.375,0.0833 -3.07453,0.1958 -3.77673,0.25 l -1.27674,0.0985 0.27674,14.75 0.27673,14.75 5.25,0.30226 5.25,0.30226 0,4.94774 0,4.94774 -8.75,-0.116 c -4.8125,-0.0638 -9.5375,-0.3218 -10.5,-0.57333 z m 28.90599,-43.43787 c -0.36882,-24.30535 -0.4647,-44.39742 -0.21308,-44.64905 0.3953,-0.39529 6.08631,-0.56168 10.45735,-0.30574 l 1.40027,0.082 -0.40027,39.25 -0.40026,39.25 3.5,-0.24494 c 1.925,-0.13472 4.44065,-0.0317 5.59033,0.22898 l 2.09033,0.47392 -0.2062,4.77102 -0.20621,4.77102 -10.47084,0.28218 -10.47085,0.28217 z m 30.34401,-0.28947 0,-44.41666 0.9783,-0.33334 c 0.53806,-0.18333 5.51053,-0.19046 11.04992,-0.0158 l 10.07162,0.31748 -0.29992,5.18252 -0.29992,5.18247 -5.25,0.30226 -5.25,0.30226 0,13.44774 0,13.44774 3.44098,0 3.44099,0 0.64071,1.0367 0.64072,1.0367 -0.65988,3.90577 -0.65988,3.90577 -3.17182,0.30753 -3.17182,0.30753 -0.27673,14.75 -0.27674,14.75 5.52674,0 5.52673,0 0,5.5 0,5.5 -11,0 -11,0 z m 31.4163,35.23072 c 0.37635,-5.12273 1.30383,-14.71405 2.06105,-21.31405 1.32627,-11.55983 2.97971,-30.12961 4.36294,-49 l 0.65971,-9 5.72525,0 5.72526,0 0.50591,2.5 c 0.86034,4.25147 3.40804,31.47189 5.00733,53.5 0.83856,11.55 1.79645,23.5875 2.12864,26.75 l 0.60398,5.75 -5.55612,0 -5.55612,0 -0.29207,-7.75 -0.29206,-7.75 -3.20685,-0.31014 -3.20686,-0.31014 -0.29314,7.81014 -0.29315,7.81014 -4.38399,0.31405 -4.384,0.31404 z m 14.23044,-26.46493 c -0.35571,-4.20798 -0.64674,-11.49798 -0.64674,-16.2 l 0,-8.54912 -0.89968,0.95 -0.89968,0.95 -0.993,14.5 c -0.54615,7.975 -0.78973,14.8375 -0.5413,15.25 0.24843,0.4125 1.39117,0.75 2.53941,0.75 l 2.08772,0 z m 55.89326,2.40088 c -0.38035,-18.2875 -0.54494,-38.65 -0.36577,-45.25 l 0.32577,-12 11.1556,-0.28187 11.15561,-0.28187 0.34439,5.6288 0.3444,5.62881 -0.94702,0.58385 c -0.52086,0.32111 -3.10836,0.46913 -5.75,0.32892 l -4.80298,-0.25492 0,12.57414 c 0,6.91578 -0.009,12.91164 -0.0209,13.32414 -0.0115,0.4125 1.56351,0.88966 3.5,1.06037 l 3.52089,0.31036 0,5.37927 0,5.37927 -3.67597,0.31036 -3.67597,0.31037 -0.43576,14.75 -0.43576,14.75 6.11173,0 6.11173,0 0,5.5 0,5.5 -10.88424,0 -10.88423,0 z m -198.99829,3 c -0.37804,-16.0875 -0.54208,-35.775 -0.36453,-43.75 l 0.32282,-14.5 8.86358,-0.29059 8.86358,-0.29059 2.36561,1.55001 c 1.30109,0.8525 3.0798,2.93109 3.9527,4.61909 l 1.58708,3.06909 -0.31627,16.24565 -0.31628,16.24565 -1.75,1.74727 c -2.17814,2.17476 -2.16275,2.5199 0.25,5.60442 l 1.95553,2.5 0.0222,18.25 0.0223,18.25 -3.94098,0 -3.94099,0 -0.77322,-1.25 -0.77323,-1.25 -0.53579,-17 -0.53579,-17 -2.75,-0.31642 -2.75,-0.31642 0,18.56642 0,18.56642 -4.38547,0 -4.38548,0 -0.68734,-29.25 z m 14.25829,-18.95 1.2,-1.2 0,-13.8 0,-13.8 -2.44588,0 -2.44589,0 -0.30411,13.75 c -0.16727,7.5625 -0.14348,14.3125 0.0529,15 0.45233,1.58385 2.38465,1.60836 3.94301,0.05 z m -37.45928,15.43174 -1.15928,-0.73764 -0.31006,-4.99705 -0.31006,-4.99705 7.71934,-0.29206 7.71934,-0.29207 0,5.43508 0,5.43507 -1.58179,0.60699 c -2.20283,0.84531 -10.6733,0.7322 -12.07749,-0.16127 z"
         id="path3325"
         style="fill:#030303" />
    </g>
  </g>
</svg>
